<?xml version="1.0" standalone="no"?>
<!DOCTYPE svg PUBLIC "-//W3C//DTD SVG 20010904//EN"
 "http://www.w3.org/TR/2001/REC-SVG-20010904/DTD/svg10.dtd">
<svg version="1.0" xmlns="http://www.w3.org/2000/svg"
 width="600.000000pt" height="600.000000pt" viewBox="0 0 600.000000 600.000000"
 preserveAspectRatio="xMidYMid meet">
<metadata>
Created by potrace 1.11, written by Peter Selinger 2001-2013
</metadata>
<g transform="translate(0.000000,600.000000) scale(0.100000,-0.100000)"
fill="#000000" stroke="none">
<path d="M2798 5995 c-1 -1 -41 -6 -87 -9 -47 -4 -87 -9 -90 -10 -3 -2 -33 -7
-66 -10 -33 -4 -76 -10 -95 -15 -19 -4 -38 -8 -43 -9 -119 -14 -413 -105 -597
-184 -473 -202 -900 -535 -1199 -933 -46 -60 -88 -117 -95 -125 -6 -8 -29 -44
-50 -80 -22 -36 -45 -72 -52 -80 -20 -24 -158 -297 -193 -382 -76 -185 -137
-387 -171 -563 -6 -27 -12 -61 -15 -75 -3 -14 -7 -43 -10 -65 -3 -22 -8 -56
-10 -75 -16 -116 -20 -188 -19 -385 0 -237 4 -294 34 -480 29 -179 98 -445
139 -540 5 -11 16 -38 24 -60 48 -130 165 -364 245 -492 234 -374 524 -673
893 -921 150 -101 411 -239 544 -287 28 -10 56 -23 62 -28 7 -5 13 -7 13 -4 0
3 17 -1 37 -10 113 -47 408 -121 553 -138 25 -3 54 -8 65 -10 131 -26 618 -27
775 0 14 2 70 11 125 20 155 26 394 88 480 125 11 5 56 22 100 38 296 111 620
308 875 531 78 68 236 225 285 282 317 370 526 763 645 1214 32 123 55 233 65
314 4 30 9 63 11 75 25 130 25 648 -1 771 -3 11 -6 34 -9 50 -27 186 -95 459
-146 580 -4 11 -18 47 -30 80 -61 162 -199 420 -318 596 -231 338 -611 692
-957 890 -266 151 -602 285 -845 334 -107 22 -238 45 -290 50 -36 4 -74 9 -85
12 -23 5 -491 13 -497 8z"/>
</g>
</svg>
